<svg xmlns="http://www.w3.org/2000/svg" viewBox="0 0 128 128" width="128" height="128">
  <defs>
    <!-- Gradient for the main tab background -->
    <linearGradient id="tabGradient" x1="0%" y1="0%" x2="100%" y2="100%">
      <stop offset="0%" style="stop-color:#00D4FF;stop-opacity:1" />
      <stop offset="50%" style="stop-color:#0099CC;stop-opacity:1" />
      <stop offset="100%" style="stop-color:#0066AA;stop-opacity:1" />
    </linearGradient>
    
    <!-- Gradient for flames -->
    <linearGradient id="flameGradient" x1="0%" y1="100%" x2="100%" y2="0%">
      <stop offset="0%" style="stop-color:#FF4500;stop-opacity:1" />
      <stop offset="50%" style="stop-color:#FF6600;stop-opacity:1" />
      <stop offset="100%" style="stop-color:#FFAA00;stop-opacity:1" />
    </linearGradient>
    
    <!-- Gradient for speed lines -->
    <linearGradient id="speedGradient" x1="0%" y1="0%" x2="100%" y2="0%">
      <stop offset="0%" style="stop-color:#FFFFFF;stop-opacity:0" />
      <stop offset="50%" style="stop-color:#FFFFFF;stop-opacity:0.8" />
      <stop offset="100%" style="stop-color:#FFFFFF;stop-opacity:0" />
    </linearGradient>
    
    <!-- Shadow filter -->
    <filter id="shadow" x="-50%" y="-50%" width="200%" height="200%">
      <feDropShadow dx="2" dy="2" stdDeviation="3" flood-color="#000000" flood-opacity="0.3"/>
    </filter>
    
    <!-- Glow effect -->
    <filter id="glow" x="-50%" y="-50%" width="200%" height="200%">
      <feGaussianBlur stdDeviation="3" result="coloredBlur"/>
      <feMerge> 
        <feMergeNode in="coloredBlur"/>
        <feMergeNode in="SourceGraphic"/>
      </feMerge>
    </filter>
  </defs>
  
  <!-- Background circle for contrast -->
  <circle cx="64" cy="64" r="60" fill="#000000" opacity="0.1"/>
  
  <!-- Main tab shape -->
  <path d="M 20 45 
           Q 20 35 30 35 
           L 50 35 
           Q 55 30 60 30 
           L 68 30 
           Q 73 35 78 35 
           L 98 35 
           Q 108 35 108 45 
           L 108 85 
           Q 108 95 98 95 
           L 30 95 
           Q 20 95 20 85 
           Z" 
        fill="url(#tabGradient)" 
        stroke="#000000" 
        stroke-width="2" 
        filter="url(#shadow)"/>
  
  <!-- Racing stripes -->
  <rect x="25" y="40" width="4" height="50" fill="#FFFFFF" opacity="0.3" rx="2"/>
  <rect x="32" y="40" width="2" height="50" fill="#FFFFFF" opacity="0.5" rx="1"/>
  <rect x="36" y="40" width="4" height="50" fill="#FFFFFF" opacity="0.3" rx="2"/>
  
  <!-- Speed lines (motion blur effect) -->
  <g opacity="0.6">
    <rect x="110" y="48" width="15" height="2" fill="url(#speedGradient)" rx="1"/>
    <rect x="112" y="55" width="12" height="1.5" fill="url(#speedGradient)" rx="0.75"/>
    <rect x="114" y="62" width="10" height="1.5" fill="url(#speedGradient)" rx="0.75"/>
    <rect x="116" y="69" width="8" height="1" fill="url(#speedGradient)" rx="0.5"/>
    <rect x="118" y="76" width="6" height="1" fill="url(#speedGradient)" rx="0.5"/>
  </g>
  
  <!-- Flame elements -->
  <g transform="translate(85, 25)">
    <!-- Large flame -->
    <path d="M 0 15 
             Q -5 10 -3 5 
             Q 0 0 5 3 
             Q 10 8 12 15 
             Q 10 20 5 18 
             Q 0 20 0 15 Z" 
          fill="url(#flameGradient)" 
          opacity="0.8"/>
    
    <!-- Medium flame -->
    <path d="M 8 12 
             Q 6 8 8 6 
             Q 10 4 12 6 
             Q 14 10 15 12 
             Q 13 15 11 14 
             Q 8 15 8 12 Z" 
          fill="url(#flameGradient)" 
          opacity="0.9"/>
    
    <!-- Small flame -->
    <path d="M 12 10 
             Q 11 8 12 7 
             Q 13 6 14 7 
             Q 15 9 15 10 
             Q 14 11 13 11 
             Q 12 11 12 10 Z" 
          fill="#FFAA00" 
          opacity="1"/>
  </g>
  
  <!-- Double "T" letters for TooTab -->
  <g filter="url(#glow)">
    <!-- First T -->
    <g transform="translate(45, 50)">
      <!-- T horizontal bar -->
      <rect x="0" y="0" width="16" height="4" fill="#FFFFFF" rx="2"/>
      <!-- T vertical bar -->
      <rect x="6" y="0" width="4" height="20" fill="#FFFFFF" rx="2"/>
    </g>
    
    <!-- Second T (slightly offset and smaller for dynamic effect) -->
    <g transform="translate(58, 52)">
      <!-- T horizontal bar -->
      <rect x="0" y="0" width="14" height="3.5" fill="#FFAA00" rx="1.75"/>
      <!-- T vertical bar -->
      <rect x="5.25" y="0" width="3.5" height="18" fill="#FFAA00" rx="1.75"/>
    </g>
  </g>
  
  <!-- Additional speed accent lines -->
  <g opacity="0.4">
    <line x1="15" y1="50" x2="45" y2="47" stroke="#FFFFFF" stroke-width="1" stroke-linecap="round"/>
    <line x1="15" y1="58" x2="40" y2="56" stroke="#FFFFFF" stroke-width="0.8" stroke-linecap="round"/>
    <line x1="15" y1="66" x2="35" y2="65" stroke="#FFFFFF" stroke-width="0.6" stroke-linecap="round"/>
  </g>
  
  <!-- Chrome extension badge indicator -->
  <circle cx="95" cy="85" r="8" fill="#FF4500" stroke="#000000" stroke-width="1" opacity="0.9"/>
  <circle cx="95" cy="85" r="4" fill="#FFFFFF"/>
  
</svg>